<svg xmlns="http://www.w3.org/2000/svg" width="15.987" height="7.037" viewBox="0 0 15.987 7.037">
  <g id="_001-down-arrow" data-name="001-down-arrow" transform="translate(18.185 60.48) rotate(-90)">
    <path id="Path_3" data-name="Path 3" d="M60.186-5.849,57.167-2.83,57.222-18a.185.185,0,0,0-.185-.185.185.185,0,0,0-.185.185L56.8-2.83,53.778-5.849a.185.185,0,0,0-.262,0,.185.185,0,0,0,0,.257l3.335,3.335a.185.185,0,0,0,.262,0h0l3.335-3.335a.185.185,0,0,0,0-.262.185.185,0,0,0-.257,0Z" transform="translate(-0.021)" fill="#333"/>
    <path id="Path_4" data-name="Path 4" d="M56.961,302.511a.185.185,0,0,1-.131-.054l-3.335-3.335a.185.185,0,0,1,.262-.262l3.2,3.2,3.2-3.2a.185.185,0,0,1,.262.262l-3.335,3.335A.185.185,0,0,1,56.961,302.511Z" transform="translate(0 -304.708)" fill="#333"/>
  </g>
</svg>
