<svg xmlns="http://www.w3.org/2000/svg" width="12.25" height="27.83" viewBox="0 0 12.25 27.83">
  <g id="_001-down-arrow" data-name="001-down-arrow" transform="translate(-53.443 18.185)">
    <path id="Path_3" data-name="Path 3" d="M65.165,3.289,59.91,8.544l.095-26.406a.323.323,0,0,0-.323-.323.323.323,0,0,0-.323.323L59.265,8.544,54.011,3.289a.323.323,0,0,0-.456.456L59.36,9.55a.323.323,0,0,0,.456,0h0l5.806-5.806a.323.323,0,0,0-.456-.456Z" transform="translate(-0.021)" fill="#fff"/>
    <path id="Path_4" data-name="Path 4" d="M59.567,305.254a.322.322,0,0,1-.228-.094l-5.806-5.806a.323.323,0,0,1,.456-.456l5.578,5.577,5.577-5.577a.323.323,0,0,1,.456.456l-5.806,5.806A.322.322,0,0,1,59.567,305.254Z" transform="translate(0 -295.609)" fill="#fff"/>
  </g>
</svg>
