<svg id="_001-whatsapp" data-name="001-whatsapp" xmlns="http://www.w3.org/2000/svg" width="17.414" height="17.43" viewBox="0 0 17.414 17.43">
  <path id="Path_1" data-name="Path 1" d="M14.84,2.531a8.712,8.712,0,0,0-12.277,0A8.551,8.551,0,0,0,0,8.634v0a8.6,8.6,0,0,0,1.061,4.079L.024,17.43,4.79,16.346a8.724,8.724,0,0,0,3.913.93h0a8.683,8.683,0,0,0,6.143-2.529A8.545,8.545,0,0,0,14.84,2.531ZM8.706,15.915h0a7.353,7.353,0,0,1-3.5-.886l-.225-.122-3.17.721L2.5,12.5l-.133-.229A7.272,7.272,0,0,1,1.36,8.637,7.344,7.344,0,0,1,13.88,3.495a7.232,7.232,0,0,1,2.173,5.146A7.321,7.321,0,0,1,8.706,15.915Zm0,0" fill="#fff"/>
  <path id="Path_2" data-name="Path 2" d="M140.477,141.863H140.1a.733.733,0,0,0-.531.248,2.222,2.222,0,0,0-.7,1.656,3.855,3.855,0,0,0,.813,2.053,8.163,8.163,0,0,0,3.4,3c1.682.661,2.025.53,2.39.5a2.011,2.011,0,0,0,1.344-.944,1.654,1.654,0,0,0,.116-.944c-.05-.083-.183-.132-.382-.232s-1.175-.588-1.358-.654-.315-.1-.448.1-.524.657-.64.79-.232.149-.432.05a5.507,5.507,0,0,1-1.595-.989,6.1,6.1,0,0,1-1.119-1.4c-.116-.2-.012-.306.088-.405s.21-.21.31-.326a1.343,1.343,0,0,0,.194-.331.364.364,0,0,0-.017-.348c-.05-.1-.432-1.081-.609-1.473h0C140.776,141.88,140.619,141.869,140.477,141.863Zm0,0" transform="translate(-134.14 -137.034)" fill="#fff"/>
</svg>
