<?xml version="1.0" encoding="utf-8"?>
<!-- Generator: Adobe Illustrator 27.2.0, SVG Export Plug-In . SVG Version: 6.00 Build 0)  -->
<svg version="1.1" id="Layer_1" xmlns="http://www.w3.org/2000/svg" xmlns:xlink="http://www.w3.org/1999/xlink" x="0px" y="0px"
	 viewBox="0 0 700 700" style="enable-background:new 0 0 700 700;" xml:space="preserve">
<style type="text/css">
	.st0{fill-rule:evenodd;clip-rule:evenodd;}
</style>
<g>
	<path class="st0" d="M282.4,105.3c-13.8,0-25,11.2-25,25v248c0,3-3.6,3.9-5.2,1.7l-69.9-99.4l0,0c-7.9-11.2-23.6-14-34.8-6
		c0,0,0,0,0,0c-5.6,3.9-8.4,9.3-9.2,15.5c-0.8,6.2,0.5,13.2,3.4,19.8c0,0,0,0,0,0c21.8,49.1,43.6,98.2,65.3,147.4
		c14.9,33.7,22.6,60.6,40.7,78.9c18.1,18.2,47.1,28.6,106.4,28.6c40.5,0,70.2-15,89.9-36.8c19.7-21.8,29.5-50.4,29.7-77.6l0,0
		c0.1-10.8,0.1-18.6,0-27.1l0,0V263c0-13.8-11.2-25-25-25c-13.7,0-25,11.2-25,25v113.2c0,0.7-0.3,1.5-0.8,2c-0.5,0.5-1.2,0.8-2,0.8
		c-0.7,0-1.5-0.3-2-0.8c-0.5-0.5-0.8-1.2-0.8-2V233.3c0-13.7-11.2-25-25-25c-13.7,0-25,11.3-25,25v119.8c0,0.7-0.3,1.5-0.8,2
		c-0.5,0.5-1.2,0.8-2,0.8c-0.7,0-1.5-0.3-2-0.8c-0.5-0.5-0.8-1.2-0.8-2V207.2c0-13.8-11.2-25-25-25c-13.7,0-25,11.2-25,25v120.8
		c0,0.7-0.3,1.5-0.8,2c-0.5,0.5-1.2,0.8-2,0.8c-0.7,0-1.5-0.3-2-0.8c-0.5-0.5-0.8-1.2-0.8-2V207.2v-76.8
		C307.4,116.6,296.2,105.4,282.4,105.3L282.4,105.3z"/>
</g>
</svg>
