<?xml version="1.0" encoding="utf-8"?>
<!-- Generator: Adobe Illustrator 26.3.1, SVG Export Plug-In . SVG Version: 6.00 Build 0)  -->
<svg version="1.1" id="Layer_1" xmlns="http://www.w3.org/2000/svg" xmlns:xlink="http://www.w3.org/1999/xlink" x="0px" y="0px"
	 viewBox="0 0 445.2 554.2" style="enable-background:new 0 0 445.2 554.2;" xml:space="preserve">
<style type="text/css">
	.st0{fill:#FFFFFF;}
	.st1{font-family:'Helvetica-Bold';}
	.st2{font-size:12px;}
	.st3{fill:none;stroke:#FFFFFF;stroke-width:1.183;}
	.st4{clip-path:url(#SVGID_00000166663391480524138000000017384220456669152428_);}
	.st5{clip-path:url(#SVGID_00000182520569905521672480000002495753815614251156_);}
	.st6{fill:none;stroke:#000000;stroke-miterlimit:10;}
</style>
<image style="overflow:visible;enable-background:new    ;" width="256" height="256" xlink:href="61F02D49CED823F9.png"  transform="matrix(0.1865 0 0 0.1865 324.8499 -144.7788)">
</image>
<text transform="matrix(1 0 0 1 160.2253 460.1189)" class="st0 st1 st2">generated A</text>
<text transform="matrix(1 0 0 1 672.463 448.7319)" class="st2" style="font-family:'ArialMT';">input A</text>
<text transform="matrix(1 0 0 1 123.0567 193.0944)" class="st0 st1 st2">input A</text>
<text transform="matrix(1 0 0 1 294.1261 541.138)" class="st0 st1 st2">input B</text>
<text transform="matrix(1 0 0 1 123.0569 297.2133)" class="st0 st1 st2">cyclicA</text>
<text transform="matrix(1 0 0 1 294.1261 432.3667)" class="st0 st1 st2">cyclic B</text>
<text transform="matrix(1 0 0 1 657.074 636.4193)" class="st2" style="font-family:'ArialMT';">discriminator B</text>
<text transform="matrix(1 0 0 1 764.3604 474.0494)" class="st2" style="font-family:'ArialMT';">generator A2B</text>
<text transform="matrix(1 0 0 1 219.3786 270.7607)" class="st0 st1 st2">generated B</text>
<text transform="matrix(1 0 0 1 764.9102 560.5585)" class="st2" style="font-family:'ArialMT';">generator B2A</text>
<ellipse class="st3" cx="214.6" cy="85.6" rx="73.7" ry="72.6"/>
<image style="overflow:visible;enable-background:new    ;" width="256" height="256" xlink:href="61F02D49CED823FB.png"  transform="matrix(0.292 0 0 0.292 115.4888 48.2134)">
</image>
<image style="overflow:visible;enable-background:new    ;" width="256" height="256" xlink:href="61F02D49CED823FE.png"  transform="matrix(0.292 0 0 0.292 192.038 -179.8254)">
</image>
<g>
	<g>
		<defs>
			<rect id="SVGID_1_" x="250.1" y="48.2" width="74.7" height="74.7"/>
		</defs>
		<clipPath id="SVGID_00000101091222917804798600000009653858842274484365_">
			<use xlink:href="#SVGID_1_"  style="overflow:visible;"/>
		</clipPath>
		<g style="clip-path:url(#SVGID_00000101091222917804798600000009653858842274484365_);">
			
				<image style="overflow:visible;enable-background:new    ;" width="302" height="540" xlink:href="61F02D49CED823FF.png"  transform="matrix(0.2572 0 0 0.2572 248.6432 12.7539)">
			</image>
		</g>
	</g>
</g>
<g>
	<g>
		<defs>
			<rect id="SVGID_00000065043452257787509980000006194597818566318481_" x="427.3" y="-195.6" width="74.7" height="74.7"/>
		</defs>
		<clipPath id="SVGID_00000178913912494519482560000001619227929284614329_">
			<use xlink:href="#SVGID_00000065043452257787509980000006194597818566318481_"  style="overflow:visible;"/>
		</clipPath>
		<g style="clip-path:url(#SVGID_00000178913912494519482560000001619227929284614329_);">
			
				<image style="overflow:visible;enable-background:new    ;" width="302" height="540" xlink:href="61F02D49CED823FA.png"  transform="matrix(0.2572 0 0 0.2572 425.8137 -231.1022)">
			</image>
		</g>
	</g>
</g>
<g>
	<g>
		<line class="st6" x1="656.5" y1="454.2" x2="597.9" y2="505.3"/>
		<g>
			<polygon points="595.7,500.6 592.5,510 602.3,508.1 			"/>
		</g>
	</g>
</g>
<g>
	<g>
		<line class="st6" x1="595.9" y1="658" x2="537.4" y2="606.9"/>
		<g>
			<polygon points="541.7,604.1 532,602.1 535.2,611.6 			"/>
		</g>
	</g>
</g>
<g>
	<defs>
		<path id="SVGID_00000007404964071199139830000015227317645960774063_" d="M12.7,194.6h182.9l22-8.1l114.1,12.6l95.5-16.2l18,127.1
			l-207.5,34.2l-149.4,5.4l24.3-49.6l55.5,2.7l92.3-13.5l28.8-10.8l-1.8-30.6l-58.6-6.4H94.7l-6.3,44.2l-98.2,9.9L12.7,194.6z
			 M1.9,402.3v140.8l125.3-34.9l110.6,46l48-24.3h73l109.9-4.5l-29.7-105.4l-86.7,12.7l4.7,54.9l-198.3-13.7v-34.7l99.1-6.4
			l28.8-12.7h54.1l0.9-45.1l-230.7,5.9L1.9,402.3z"/>
	</defs>
	<clipPath id="SVGID_00000021096872697983356240000013323033705835154607_">
		<use xlink:href="#SVGID_00000007404964071199139830000015227317645960774063_"  style="overflow:visible;"/>
	</clipPath>
	<g transform="matrix(1 0 0 1 0 0)" style="clip-path:url(#SVGID_00000021096872697983356240000013323033705835154607_);">
		
			<image style="overflow:visible;" width="1648" height="1388" xlink:href="../../../../../Desktop/cyclegan.png"  transform="matrix(0.3584 0 0 0.3584 -57.6019 113.239)">
		</image>
	</g>
</g>
</svg>
