<?xml version="1.0" encoding="utf-8"?>
<!-- Generator: Adobe Illustrator 27.2.0, SVG Export Plug-In . SVG Version: 6.00 Build 0)  -->
<svg version="1.1" id="Layer_1" xmlns="http://www.w3.org/2000/svg" xmlns:xlink="http://www.w3.org/1999/xlink" x="0px" y="0px"
	 viewBox="0 0 700 700" style="enable-background:new 0 0 700 700;" xml:space="preserve">
<style type="text/css">
	.st0{fill-rule:evenodd;clip-rule:evenodd;}
</style>
<g>
	<path class="st0" d="M350,0c-73.8,0-132.4,58.6-132.4,132.4c0,62.4,68.1,157,111.6,183.5c-1.9,3.8-1.9,5.7,0,5.7l-1.9,3.8
		l-20.8,35.9h87l-20.8-35.9c1.9,1.9,5.7,3.8,7.6,5.7c9.5,7.6,17,15.1,22.7,24.6c5.7,7.6,9.5,18.9,9.5,28.4
		c1.9,18.9-15.1,32.2-28.4,43.5c-11.4,9.5-24.6,20.8-22.7,39.7c1.9,20.8,26.5,26.5,37.8,43.5c1.9,1.9,3.8,5.7,5.7,9.5
		c0,3.8,0,7.6-1.9,11.4s-5.7,7.6-9.5,9.5c-5.7,5.7-11.4,7.6-18.9,9.5c-5.7,1.9-3.8,9.5,1.9,9.5c7.6-1.9,17-5.7,22.7-11.4
		c5.7-3.8,9.5-7.6,13.2-13.2c1.9-5.7,1.9-11.4,1.9-17c-1.9-5.7-3.8-9.5-7.6-13.2c-9.5-13.2-34.1-24.6-35.9-39.7
		c0-13.2,11.4-22.7,20.8-32.2c15.1-13.2,32.2-28.4,30.3-49.2c0-11.4-5.7-24.6-11.4-34.1c-5.7-9.5-15.1-18.9-24.6-26.5
		c-3.8-1.9-9.5-5.7-15.1-7.6c45.4-28.4,111.6-123,111.6-183.5C482.4,58.6,421.9,0,350,0L350,0z M378.4,37.8
		c11.4,3.8,22.7,11.4,34.1,18.9c18.9,13.2,32.2,32.2,35.9,56.8c3.8,22.7,0,47.3-9.5,70c-7.6,17-17,34.1-28.4,49.2
		c-3.8,3.8,3.8,9.5,7.6,3.8c11.4-15.1,20.8-32.2,28.4-51.1c9.5-22.7,15.1-49.2,11.4-73.8c-5.7-26.5-18.9-47.3-39.7-62.4
		c-11.4-7.6-24.6-15.1-35.9-18.9C376.5,26.5,372.7,35.9,378.4,37.8L378.4,37.8z"/>
</g>
</svg>
