<?xml version="1.0" encoding="utf-8"?>
<!-- Generator: Adobe Illustrator 27.2.0, SVG Export Plug-In . SVG Version: 6.00 Build 0)  -->
<svg version="1.1" id="Layer_1" xmlns="http://www.w3.org/2000/svg" xmlns:xlink="http://www.w3.org/1999/xlink" x="0px" y="0px"
	 viewBox="0 0 700 700" style="enable-background:new 0 0 700 700;" xml:space="preserve">
<g>
	<path d="M479.9,47.6c5.6,0.4,10.1,5.6,10.1,11.1v431.2c0,4.6-3.4,9.1-7.7,10.5l-33.5,11.1c-1.2,0.6-2.4,0.8-3.6,0.8h-224
		c-5.8,0-11.1-5.4-11.1-11.1V81.2c0-3.4,1.6-6.8,4.2-8.7c8.3-8.3,16.5-16.7,24.8-24.8L479.9,47.6z M467.6,78.4
		c-4.6,4-9.7,9.1-16.7,11.9v397.2l16.7-5.6V78.4z M428.5,92.3h-196v397.6H266v-89.5h128.8v89.5h33.7v-95.2h-33.7v-89.5h33.7v-11.3
		h-33.7v-89.5h33.7v-11.3h-33.7v-89.5h33.7L428.5,92.3z M383.6,103.6v89.5h-39.3v-89.5L383.6,103.6z M333.2,103.6v89.5h-39.3v-89.5
		L333.2,103.6z M282.8,103.6v89.5h-39.3v-89.5L282.8,103.6z M383.6,204.4v89.5h-39.3v-89.5L383.6,204.4z M383.6,434H336v56h47.6V434
		z M324.9,434h-47.6v56h47.6v-17.9c-1,0.6-1.8,1-3,1c-3,0-5.6-2.4-5.6-5.6c0-3,2.6-5.6,5.6-5.6c1.2,0,2,0.4,3,0.8V434z"/>
</g>
</svg>
