<?xml version="1.0" encoding="utf-8"?>
<!-- Generator: Adobe Illustrator 27.2.0, SVG Export Plug-In . SVG Version: 6.00 Build 0)  -->
<svg version="1.1" id="Layer_1" xmlns="http://www.w3.org/2000/svg" xmlns:xlink="http://www.w3.org/1999/xlink" x="0px" y="0px"
	 viewBox="0 0 700 700" style="enable-background:new 0 0 700 700;" xml:space="preserve">
<style type="text/css">
	.st0{fill-rule:evenodd;clip-rule:evenodd;}
</style>
<g>
	<path class="st0" d="M511.1,253.3L388.9,146.7H191.1l-75.6,106.7H511.1L511.1,253.3z M577.8,382.2c20,0,37.8,15.6,37.8,35.6
		s-17.8,37.8-37.8,37.8S540,437.8,540,417.8S557.8,382.2,577.8,382.2z M148.9,382.2c20,0,37.8,15.6,37.8,35.6s-17.8,37.8-37.8,37.8
		s-35.6-17.8-35.6-37.8S128.9,382.2,148.9,382.2z M651.1,433.3c-6.7,33.3-37.8,60-73.3,60c-35.6,0-66.7-24.4-73.3-60H222.2
		c-6.7,35.6-37.8,60-73.3,60s-64.4-24.4-73.3-60c-40,0-75.6-17.8-75.6-62.2v-60c0-28.9,37.8-46.7,71.1-55.6l102.2-144.4h228.9
		l164.5,146.7c64.4,4.4,133.3,17.8,133.3,46.7v66.7C700,400,680,426.7,651.1,433.3L651.1,433.3z"/>
	<path class="st0" d="M268.9,133.3h39.4v142.4h-39.4V133.3z"/>
</g>
</svg>
