<?xml version="1.0" encoding="utf-8"?>
<!-- Generator: Adobe Illustrator 27.2.0, SVG Export Plug-In . SVG Version: 6.00 Build 0)  -->
<svg version="1.1" id="Layer_1" xmlns="http://www.w3.org/2000/svg" xmlns:xlink="http://www.w3.org/1999/xlink" x="0px" y="0px"
	 viewBox="0 0 700 700" style="enable-background:new 0 0 700 700;" xml:space="preserve">
<g>
	<path d="M469.5,92c-5.3,0-10.5,3.5-11.4,10.6l-13.7,82.2c-2.7,16-19.5,37.2-57.2,40.1c-74.2,5.7-66.2-3.5-115.8-4.2
		c-27.3-8.7-49.3-26.6-67.5-55c-4-6.5-12.2-9.2-19.2-6.3c-9.2,3.7-12.7,15-7.2,23.3c13.1,20.4,29,37,47.2,49.4
		c-26.4,15.3-22.7,41-32,60.1c-12.1,18.5-26.9,32.9-59.8,42.9c-3.1,0.7-5.8,2.5-7.6,5.2l-22.7,36.8l28.6,28.6
		c6.7-6.7,7.8-17.2,2.8-25.1l12.9-19.5l56.8,2.8L181,381.7c-2.5,1.9-4.2,4.6-4.7,7.7l-7.1,40.7l35.1,20.2c5.6-9.7,2.3-22-7.4-27.6
		l7.4-26.2c28-3.1,42.8-9.1,76.7-43c48.2-48.2,56.3,19.4,158.2,4.9L477,399l18.7,42.4c1.4,3.2,4.2,5.7,7.6,6.7l35.1,20.3
		c5.6-9.7,2.3-22-7.4-27.6c-1.9-1.1-3.9-1.8-6-2.3l-19.2-73.6l29.5,2l24.7,27l35.1,20.3c5.6-9.7,2.3-22-7.4-27.6
		c-1.9-1.1-4.1-1.9-6.4-2.4l-26.1-43.1c-1.3-1.6-2.9-2.8-4.9-3.6l-27.3-10.9c-23.5-9.5-29-48.4-25.8-69.2c2.2-14.8,9.3-24,26.6-24.2
		l39.9-0.3c20.6-2.6,28.2-20,31.8-30c4.2-11.7,0-19.3-8.8-21.7c-24-6.4-30.1-9.3-40.1-25.1c-8.8-14-16.8-20.8-29.3-22.6l-4.9-18.4
		c-3.2-11.9-18.9-11.9-20.4,0l-2.1,15.9l-7.4-28C480.5,95.5,474.9,92,469.5,92L469.5,92z"/>
</g>
</svg>
