<?xml version="1.0" encoding="utf-8"?>
<!-- Generator: Adobe Illustrator 27.2.0, SVG Export Plug-In . SVG Version: 6.00 Build 0)  -->
<svg version="1.1" id="Layer_1" xmlns="http://www.w3.org/2000/svg" xmlns:xlink="http://www.w3.org/1999/xlink" x="0px" y="0px"
	 viewBox="0 0 700 700" style="enable-background:new 0 0 700 700;" xml:space="preserve">
<g>
	<path d="M450.7,234.9c-0.5-0.3-1.1-0.5-1.7-0.6c-14.7-3-40.6-10.3-47.5-17.2c-6.7-6.7-10.1-12.4-13.7-18.4
		c-3.2-5.4-6.5-10.9-12.3-17.1c-13.5-14.6-46.1-25.5-73-2.3c-0.1,0.1-0.2,0.2-0.3,0.3l-51.1,50.4c-5.8,5.4-10.8,15.7-11.4,23.5
		l-3,40c-0.7,9.4,6.4,18.1,15.7,19.4l12.1,1.6c0.8,0.1,1.6,0.2,2.3,0.2c8.6,0,16.2-6.4,17.5-15.1c0,0,0,0,0-0.1l3.8-27.7
		c0-0.2,0.1-0.5,0.1-0.8c0-2.3,1.3-9.2,13.8-23.3c1.9-2.1,3.8-4.2,5.6-6v77.7c0,7.6,3.3,18.5,7.5,24.9l85.8,128.5
		c4.6,6.9,14.8,12.4,23.1,12.4h13.3c4.9,0,9.2-2.1,11.8-5.6c2.6-3.6,3.2-8.3,1.7-13c-0.1-0.3-0.2-0.5-0.3-0.8l-63.8-125.3
		c-1.8-5.7-3.3-15.2-3.3-21l0-54.7l63.1,15.1c0.1,0,0.1,0,0.2,0c8.2,1.7,15.9-2.7,19-10.9C469.7,258.6,465.7,243.5,450.7,234.9
		L450.7,234.9z"/>
	<path d="M344,157.6c22.8,0,41.4-18.6,41.4-41.4S366.8,74.8,344,74.8s-41.4,18.6-41.4,41.4C302.6,139,321.2,157.6,344,157.6z"/>
	<path d="M304.4,342l-9.4,32.5c-1.7,5.7-5.6,14.9-8.6,20.2l-51.2,71.5c-0.1,0.1-0.2,0.3-0.3,0.4c-2.6,4.5-2.9,9.2-0.8,12.9
		c2.1,3.7,6.3,5.8,11.5,5.8h19.5c8.2,0,18.2-5.2,23-12l47.3-55.3c0.1-0.2,0.3-0.3,0.4-0.5c2.7-4,5.6-9.8,7.7-15.4L308.2,349
		C306.8,346.9,305.5,344.5,304.4,342L304.4,342z"/>
</g>
</svg>
