<?xml version="1.0" encoding="utf-8"?>
<!-- Generator: Adobe Illustrator 27.2.0, SVG Export Plug-In . SVG Version: 6.00 Build 0)  -->
<svg version="1.1" id="Layer_1" xmlns="http://www.w3.org/2000/svg" xmlns:xlink="http://www.w3.org/1999/xlink" x="0px" y="0px"
	 viewBox="0 0 700 700" style="enable-background:new 0 0 700 700;" xml:space="preserve">
<style type="text/css">
	.st0{fill-rule:evenodd;clip-rule:evenodd;}
</style>
<g>
	<path class="st0" d="M679.4,380.3c-8.4-25.3-22.5-47.7-42.1-67.4c-3.7-3.7-5.6-8.4-2.8-14c5.6-15,5.6-30.9-4.7-44
		c-9.4-10.3-21.5-14-34.6-11.2c-19.7,4.7-22.5,19.7-24.3,36.5c-36.5,0-93.6-65.5-221.8-37.4c-82.4,17.8-154.4,85.2-143.2,175.9
		c-3.7,9.4-8.4,17.8-17.8,23.4c-16.8,11.2-44,15-63.6,12.2c-29-3.7-52.4-16.8-70.2-39.3c-29-36.5-29-79.5-17.8-120.7
		C66.4,183.8,149.7,132.3,231.1,63.1c10.3-9.4,8.4-17.8-4.7-10.3c-88,50.5-187.2,131.9-217.1,232.1c-29,93.6,10.3,175.9,107.6,198.4
		c43,2.8,48.7-0.9,88-17.8c7.5-3.7,15.9-5.6,24.3-4.7c9.4,16.8,102,34.6,123.5,33.7c13.1,0,49.6,15,59,24.3c2.8,1.9,5.6,2.8,9.4,3.7
		c5.6,2.8,14,0.9,15.9,7.5c2.8-8.4-7.5-9.4-13.1-13.1c15-1.9,5.6,1.9,17.8,4.7c3.7,0.9,10.3,3.7,11.2,7.5c2.8-8.4-2.8-8.4-9.4-18.7
		c1.9,1.9,4.7,3.7,6.6,5.6c1.9,2.8,3.7,4.7,6.6,4.7c5.6,0.9,6.6,0,6.6,6.6c1.9-3.7,1.9-3.7,1.9-7.5c-2.8-5.6-2.8-3.7-3.7-5.6
		c-2.8-2.8-4.7-2.8-5.6-5.6c-2.8-6.6-4.7-6.6-11.2-9.4c-9.4-2.8-21.5-10.3-20.6-10.3c34.6-0.9,64.6-4.7,99.2-8.4
		c0.9,0,14,13.1,14,14c3.7,5.6,8.4,9.4,15,11.2c10.3,1.9,15,6.6,19.7,15c0.9,1.9,3.7,5.6,7.5,3.7c-0.9-0.9-0.9-1.9-1.9-2.8
		c1.9-4.7-5.6-8.4-7.5-13.1c4.7-0.9,15,6.6,15.9,9.4c0.9,1.9,6.6,2.8,7.5,1.9c1.9-0.9,1.9,0,2.8-0.9c-1.9-0.9-1.9-0.9-2.8-1.9
		c-0.9-0.9-0.9-1.9-0.9-2.8c-1.9-2.8-3.7-5.6-5.6-8.4c0,0.9,6.6,4.7,7.5,5.6c0.9,1.9,4.7,2.8,7.5,3.7c6.6,0.9,5.6-1.9,7.5-1.9
		c-2.8-0.9-1.9,0-2.8-0.9c0-0.9-2.8-0.9-2.8-1.9c-2.8-5.6-6.6-8.4-11.2-11.2c3.7-1.9,4.7-0.9,6.6,3.7c3.7-2.8,1.9-8.4-2.8-10.3
		c-3.7-0.9-11.2-1.9-13.1-1.9c-4.7,0-22.5-12.2-23.4-15.9c22.5-1.9,43-9.4,64.6,0.9c9.4,5.6,19.7,11.2,29.9,14
		c13.1,3.7,19.7,0.9,29-6.6c9.4,3.7,15.9-2.8,16.8-11.2C700.9,458.9,686,398.1,679.4,380.3L679.4,380.3z"/>
</g>
</svg>
